<svg xmlns="http://www.w3.org/2000/svg" width="512" height="512" viewBox="0 0 512 512">
<g>
<path d="M 271.39 334.03 C248.17,339.97 222.86,331.44 206.90,312.30 C200.85,305.04 195.15,292.79 193.49,283.50 C191.40,271.73 191.40,112.27 193.49,100.50 C197.64,77.25 215.85,57.41 239.50,50.40 C247.69,47.97 265.25,48.00 273.50,50.44 C295.41,56.95 312.39,74.55 318.03,96.61 C319.92,104.00 320.00,108.01 320.00,192.00 C320.00,275.99 319.92,280.00 318.03,287.39 C315.04,299.07 309.75,308.29 301.02,317.02 C292.29,325.75 283.07,331.04 271.39,334.03 ZM 312.00 462.50 C309.53,463.78 301.23,464.00 255.80,463.98 C203.99,463.97 202.41,463.91 199.34,461.94 C194.76,459.01 192.62,455.20 192.62,450.00 C192.62,445.01 194.68,441.13 198.82,438.32 C201.15,436.74 204.16,436.46 221.75,436.18 L 242.00 435.85 L 242.00 410.18 L 242.00 384.50 L 231.15 381.88 C188.42,371.58 155.81,337.01 147.79,293.50 C146.87,288.49 146.50,274.42 146.50,243.96 C146.50,205.00 146.65,201.19 148.26,198.72 C151.11,194.38 154.74,192.57 160.61,192.57 C164.87,192.57 166.44,193.06 168.55,195.04 C169.63,196.04 170.50,196.85 171.20,197.78 C174.13,201.66 174.11,207.75 174.04,240.12 L 174.04 240.87 C173.99,261.62 174.40,281.79 174.96,285.69 C177.54,303.89 185.39,319.60 198.40,332.59 C215.60,349.75 236.62,357.92 260.45,356.69 C273.90,355.99 280.76,354.24 292.50,348.47 C308.77,340.49 322.10,327.02 329.99,310.58 C337.28,295.38 337.26,295.54 337.91,245.95 C338.44,205.68 338.67,201.15 340.26,198.72 C343.11,194.38 346.74,192.57 352.61,192.57 C358.39,192.57 361.75,194.73 364.65,200.31 C366.81,204.46 366.63,281.11 364.44,293.69 C356.94,336.68 324.21,371.65 281.90,381.88 L 271.24 384.46 L 270.62 390.38 C270.28,393.63 270.00,405.23 270.00,416.15 L 270.00 436.00 L 289.03 436.00 C310.38,436.00 313.06,436.59 317.37,442.24 C322.41,448.85 319.88,458.43 312.00,462.50 Z" fill="rgb(0,0,0)"/>
<path d="M 0.00 0.00 L 512.00 0.00 L 512.00 512.00 L 0.00 512.00 ZM 191.41 464.81 C192.23,465.97 193.39,466.00 199.75,465.04 C200.68,464.90 199.85,463.17 197.88,460.91 C198.33,461.27 198.82,461.61 199.34,461.94 C202.41,463.91 203.99,463.97 255.80,463.98 C294.54,464.00 306.28,463.84 310.43,463.00 L 309.65 463.24 L 311.89 464.44 C314.28,465.72 319.49,465.84 320.68,464.66 C322.02,463.32 321.90,460.50 320.41,458.22 L 318.92 455.94 L 317.75 457.34 C320.72,452.74 320.84,446.79 317.37,442.24 C314.85,438.94 312.89,437.37 307.46,436.63 C312.64,437.30 314.64,438.65 316.62,441.27 C318.45,443.70 320.88,443.90 321.13,441.64 C321.78,435.70 320.69,431.09 318.59,430.91 C315.27,430.62 308.36,431.29 307.50,431.97 C306.17,433.03 273.98,432.74 271.75,431.64 C270.31,430.94 270.00,431.25 270.00,433.39 L 270.00 416.15 C270.00,405.23 270.28,393.63 270.62,390.38 L 271.24 384.46 L 281.90 381.88 C294.66,378.79 306.54,373.46 317.13,366.34 C307.06,373.21 295.86,378.40 283.94,381.41 C279.02,382.65 274.81,383.86 274.58,384.09 C274.35,384.31 280.50,384.50 288.25,384.50 C298.73,384.50 302.44,384.18 302.76,383.23 C302.99,382.53 303.85,381.30 304.66,380.48 C305.48,379.67 305.79,379.00 305.35,379.00 C304.91,379.00 305.52,378.33 306.69,377.50 C307.88,376.67 310.66,376.08 312.93,376.17 C316.95,376.33 319.88,374.35 319.97,371.42 C320.00,370.39 320.65,370.18 324.75,369.87 C327.03,369.69 330.11,366.99 329.38,365.81 C328.67,364.65 328.12,360.00 328.70,360.00 C328.94,360.00 329.95,360.44 330.95,360.98 C332.37,361.73 333.34,361.38 335.33,359.40 C336.73,358.00 337.67,356.30 337.41,355.63 C337.15,354.94 338.43,353.89 340.41,353.17 C342.97,352.24 344.16,351.03 344.99,348.53 C345.84,345.96 346.58,345.23 348.07,345.51 C351.11,346.10 354.03,342.30 353.53,338.40 C353.17,335.63 353.45,335.08 355.30,334.81 C356.83,334.59 357.48,333.83 357.43,332.30 C357.39,331.09 357.67,330.30 358.06,330.54 C359.10,331.18 361.36,328.15 361.52,325.92 C361.60,324.86 361.38,324.00 361.04,324.00 C360.69,324.00 360.45,322.09 360.49,319.75 C360.57,315.85 360.91,315.33 364.54,313.43 L 368.50 311.37 L 368.64 294.95 C368.74,283.29 368.42,278.02 367.54,276.76 C366.50,275.27 366.20,276.38 365.68,283.75 C365.04,292.68 363.21,301.44 360.33,309.83 C362.10,304.61 363.48,299.22 364.44,293.69 C366.55,281.58 366.79,210.16 364.89,201.08 C365.57,202.51 366.00,203.87 366.00,204.93 C366.00,206.07 366.49,207.00 367.08,207.00 C367.68,207.00 367.97,206.44 367.72,205.75 C367.48,205.06 367.81,203.38 368.45,202.00 C370.17,198.36 370.38,192.36 368.82,191.37 C366.69,190.02 358.50,190.24 357.15,191.68 C356.17,192.73 356.20,193.00 357.27,193.00 C358.16,193.00 359.32,193.75 360.51,194.91 C358.42,193.27 355.91,192.57 352.61,192.57 C349.64,192.57 347.24,193.03 345.23,194.05 C345.67,193.80 346.10,193.58 346.50,193.40 C348.35,192.58 348.83,192.06 347.75,192.04 C346.79,192.02 346.00,191.50 346.00,190.89 C346.00,189.61 337.10,190.59 335.60,192.03 C334.06,193.52 334.12,199.97 335.68,201.54 C336.49,202.35 337.07,204.24 336.97,205.75 C336.87,207.26 336.84,208.84 336.89,209.25 C336.95,209.66 337.30,210.00 337.67,210.00 C338.03,210.00 338.08,209.75 337.77,209.44 C337.19,208.86 338.05,205.11 339.24,201.77 C338.53,206.14 338.30,216.47 337.91,245.95 C337.77,257.09 337.65,265.71 337.49,272.57 C337.28,272.45 337.00,272.59 336.61,272.91 C334.71,274.49 334.14,277.13 335.12,279.79 C335.87,281.82 336.62,282.38 337.17,281.69 C337.13,282.56 337.09,283.39 337.04,284.18 C336.67,284.34 336.14,284.72 335.63,285.23 C334.82,286.04 332.88,286.62 331.33,286.53 C329.77,286.43 328.17,286.84 327.77,287.43 C326.66,289.05 326.86,294.79 328.05,295.53 C328.77,295.98 328.74,296.60 327.97,297.54 C327.35,298.29 326.92,300.16 327.03,301.70 C327.51,308.97 327.15,310.00 324.16,310.00 C322.10,310.00 321.01,310.69 320.18,312.50 C319.53,313.94 319.44,315.00 319.99,315.00 C321.94,315.00 319.83,317.62 317.03,318.68 C314.59,319.60 313.85,319.49 312.48,317.98 C311.01,316.35 311.00,315.90 312.39,313.22 C313.23,311.59 313.67,310.01 313.37,309.70 C312.13,308.47 314.25,305.14 317.00,304.00 C320.38,302.60 320.90,301.36 321.00,294.50 C321.04,291.75 321.10,288.83 321.12,288.00 C321.23,285.09 320.56,281.00 319.98,281.00 C319.66,281.00 318.85,283.67 318.17,286.94 C317.95,288.03 317.53,289.47 316.98,291.07 C317.36,289.87 317.71,288.65 318.03,287.39 C319.92,280.00 320.00,275.99 320.00,192.00 C320.00,108.01 319.92,104.00 318.03,96.61 C316.02,88.78 312.59,81.51 308.02,75.09 C312.99,81.88 316.60,89.44 318.17,97.06 C318.85,100.33 319.71,103.00 320.09,103.00 C321.28,103.00 321.79,100.56 321.26,97.47 C320.98,95.83 320.79,91.72 320.84,88.33 C320.93,82.31 320.84,82.10 317.46,80.11 C314.19,78.18 313.55,77.14 313.92,74.27 C314.01,73.60 313.32,71.90 312.40,70.49 C311.48,69.09 311.02,67.65 311.37,67.30 C312.37,66.29 308.96,63.08 307.48,63.64 C306.75,63.93 305.65,63.22 305.04,62.08 C304.43,60.93 304.19,60.00 304.50,60.00 C304.81,60.00 304.57,59.07 303.96,57.92 C303.32,56.73 302.24,56.08 301.42,56.39 C300.64,56.69 300.00,56.53 300.00,56.03 C300.00,55.53 299.21,55.10 298.25,55.08 C289.34,54.83 289.17,54.77 289.64,52.22 C289.91,50.70 289.46,49.33 288.45,48.58 C286.44,47.12 270.04,47.04 269.96,48.50 C269.94,48.89 271.10,49.58 272.82,50.25 C265.50,48.31 252.00,48.07 243.29,49.55 L 248.32 48.27 L 243.91 47.70 C235.87,46.66 224.71,47.68 223.32,49.58 C222.63,50.52 222.30,51.68 222.60,52.15 C223.40,53.46 220.49,55.92 219.14,55.09 C217.64,54.16 212.00,54.94 212.00,56.08 C212.00,56.55 211.40,56.71 210.66,56.42 C208.96,55.77 207.29,57.77 206.85,61.00 C206.64,62.48 205.84,63.51 204.89,63.52 C202.81,63.53 199.86,65.97 200.55,67.08 C200.84,67.56 200.37,69.32 199.50,71.00 C198.63,72.68 198.19,74.50 198.53,75.05 C198.86,75.59 197.50,77.63 195.49,79.58 C192.30,82.67 191.79,83.84 191.42,88.81 C191.19,91.94 190.82,95.83 190.61,97.47 C190.40,99.10 190.45,101.01 190.72,101.72 C191.73,104.34 192.89,102.84 194.01,97.46 C194.36,95.76 194.99,93.74 195.82,91.57 C194.82,94.47 194.04,97.46 193.49,100.50 C191.40,112.27 191.40,271.73 193.49,283.50 C194.57,289.51 197.33,296.76 200.79,303.10 C197.52,297.53 195.09,291.75 194.01,286.54 C192.97,281.52 191.20,279.11 190.87,282.25 C190.58,284.97 191.14,299.59 191.59,301.00 C191.85,301.83 193.51,303.41 195.28,304.52 C197.39,305.84 198.55,307.40 198.64,309.02 C198.71,310.38 199.24,312.68 199.81,314.12 C200.71,316.39 200.55,316.90 198.55,317.98 C195.92,319.38 192.45,318.63 191.62,316.46 C191.32,315.66 191.49,315.00 192.01,315.00 C192.56,315.00 192.47,313.94 191.82,312.50 C191.00,310.71 189.89,310.00 187.90,310.00 C185.60,310.00 185.19,309.63 185.52,307.88 C185.75,306.71 185.33,304.59 184.59,303.18 C183.60,301.30 183.51,299.85 184.24,297.75 C185.69,293.59 182.70,286.00 179.62,286.00 C178.40,286.00 176.80,285.44 176.07,284.75 C175.17,283.91 174.93,285.08 175.24,287.57 C175.14,286.95 175.05,286.32 174.96,285.69 C174.85,284.92 174.74,283.53 174.65,281.63 C174.81,281.79 175.01,281.83 175.25,281.76 C177.16,281.13 177.38,275.24 175.56,273.42 C174.95,272.80 174.57,272.52 174.34,272.78 C174.13,264.24 174.01,252.65 174.04,240.87 L 174.04 240.12 L 174.04 240.12 C174.10,214.22 174.12,205.14 172.63,200.56 C173.46,202.17 174.00,203.74 174.00,204.93 C174.00,206.07 174.49,207.00 175.08,207.00 C175.68,207.00 175.97,206.44 175.72,205.75 C175.48,205.06 175.81,203.38 176.45,202.00 C178.17,198.36 178.38,192.36 176.82,191.37 C174.69,190.02 166.50,190.24 165.15,191.68 C164.56,192.31 164.34,192.66 164.49,192.84 C163.47,192.64 162.23,192.57 160.61,192.57 C157.64,192.57 155.24,193.03 153.23,194.05 C153.67,193.80 154.10,193.58 154.50,193.40 C156.35,192.58 156.83,192.06 155.75,192.04 C154.79,192.02 154.00,191.50 154.00,190.89 C154.00,189.61 145.10,190.59 143.60,192.03 C142.06,193.52 142.12,199.97 143.68,201.54 C144.49,202.35 145.07,204.24 144.97,205.75 C144.87,207.26 144.84,208.84 144.89,209.25 C144.95,209.66 145.30,210.00 145.67,210.00 C146.03,210.00 146.08,209.75 145.77,209.44 C145.20,208.86 146.04,205.15 147.23,201.82 C146.58,206.03 146.50,215.83 146.50,243.96 C146.50,265.20 146.68,278.47 147.10,286.25 C146.29,280.64 145.96,280.90 144.48,282.37 C143.36,283.50 143.13,285.00 143.62,288.20 C144.45,293.65 144.45,305.88 143.63,306.71 C141.74,308.59 144.18,314.11 146.55,313.32 C147.12,313.13 148.42,313.59 149.45,314.34 C150.87,315.38 151.30,316.95 151.27,321.04 C151.22,326.46 152.66,331.33 154.05,330.47 C154.47,330.21 154.58,330.89 154.30,331.97 C153.92,333.40 154.50,334.27 156.39,335.13 C157.83,335.79 159.07,337.04 159.15,337.91 C159.23,338.78 159.40,340.40 159.52,341.50 C159.65,342.60 159.80,344.09 159.87,344.81 C159.96,345.68 160.98,345.97 162.94,345.66 C165.51,345.25 165.96,345.55 166.51,348.03 C167.25,351.40 169.51,353.50 172.40,353.50 C173.87,353.50 174.53,354.17 174.61,355.73 C174.76,358.64 176.77,361.00 179.09,361.00 C181.03,361.00 183.47,364.44 182.56,365.91 C182.26,366.38 182.73,367.36 183.59,368.08 C185.00,369.24 186.31,369.63 190.78,370.18 C191.48,370.26 191.88,370.82 191.66,371.42 C191.45,372.01 191.68,373.29 192.17,374.25 C192.86,375.59 194.34,376.00 198.46,376.00 C204.11,376.00 206.30,377.23 207.53,381.09 C208.04,382.70 208.73,383.03 210.61,382.56 C211.95,382.23 213.97,382.45 215.10,383.06 C216.24,383.66 219.27,384.39 221.83,384.67 C224.40,384.95 226.62,385.30 226.78,385.45 C226.93,385.60 228.28,385.51 229.78,385.25 C231.27,384.99 233.74,384.76 235.25,384.74 C239.55,384.70 238.56,383.83 232.34,382.17 L 242.00 384.50 L 242.00 410.18 L 242.00 433.24 C241.99,431.24 241.66,430.95 240.25,431.64 C237.97,432.76 204.82,433.03 203.47,431.95 C201.68,430.51 191.93,430.50 191.04,431.94 C190.12,433.43 190.52,443.41 191.56,445.11 C192.00,445.80 192.98,445.08 194.17,443.20 C195.76,440.69 196.92,439.13 199.12,438.13 C199.02,438.19 198.92,438.25 198.82,438.32 C194.68,441.13 192.62,445.01 192.62,450.00 C192.62,453.20 193.43,455.86 195.11,458.13 C192.50,455.89 191.31,456.34 190.90,459.50 C190.48,462.74 190.56,463.63 191.41,464.81 ZM 271.39 334.03 C273.04,333.61 274.63,333.14 276.19,332.62 C274.74,333.12 273.27,333.55 271.78,333.93 L 264.50 335.79 L 269.00 336.41 C271.48,336.75 274.40,337.02 275.50,337.00 C276.60,336.99 278.17,336.99 279.00,337.00 C285.34,337.13 290.46,334.36 289.32,331.40 C289.03,330.63 289.17,329.95 289.64,329.90 C290.11,329.84 292.23,329.64 294.34,329.45 C296.45,329.26 298.75,328.62 299.46,328.04 C300.43,327.22 301.04,327.68 301.97,329.92 C303.46,333.53 302.87,334.65 298.99,335.50 C297.34,335.86 296.00,336.80 296.00,337.58 C296.00,338.36 295.53,339.00 294.96,339.00 C294.38,339.00 294.04,339.76 294.21,340.68 C294.45,342.05 293.59,342.39 289.50,342.50 C281.17,342.73 278.79,344.37 278.56,349.97 C278.51,351.12 276.82,351.45 270.68,351.52 C265.32,351.58 262.60,352.03 262.04,352.94 C261.38,354.00 260.77,353.86 259.05,352.26 C257.24,350.57 256.48,350.43 254.45,351.37 C253.11,351.99 252.01,352.85 252.01,353.29 C252.00,353.72 251.05,353.56 249.90,352.94 C247.76,351.80 244.93,351.40 237.25,351.14 C233.76,351.03 233.00,350.65 233.00,349.06 C233.00,347.99 232.54,346.84 231.98,346.49 C231.42,346.14 231.20,345.49 231.48,345.03 C232.30,343.71 226.76,342.25 223.91,343.03 C222.33,343.46 220.38,343.22 218.91,342.41 C217.58,341.67 216.86,341.05 217.31,341.04 C219.20,340.95 214.75,336.50 212.78,336.50 C211.29,336.50 210.40,335.71 209.97,334.00 C209.27,331.19 210.95,326.30 212.02,328.03 C212.39,328.63 214.55,329.15 216.82,329.18 C219.09,329.21 221.47,329.86 222.10,330.62 C222.73,331.38 222.95,332.00 222.59,332.00 C222.23,332.00 222.41,332.90 223.00,334.00 C223.66,335.24 225.10,336.01 226.79,336.02 C228.28,336.02 230.04,336.38 230.71,336.80 C232.43,337.89 242.27,336.72 242.71,335.37 C242.92,334.74 241.52,333.95 239.58,333.58 C238.32,333.35 236.57,332.75 234.56,331.91 C246.30,336.27 259.14,337.16 271.39,334.03 ZM 310.58 325.56 C307.96,328.18 305.00,326.80 305.00,322.96 C305.00,320.38 305.31,320.10 308.01,320.29 C309.90,320.42 310.85,320.95 310.55,321.72 C310.30,322.39 310.52,323.20 311.05,323.53 C311.62,323.88 311.42,324.72 310.58,325.56 ZM 205.42 326.39 C203.29,327.21 202.01,327.16 201.93,326.25 C201.89,325.84 201.71,324.33 201.52,322.90 C201.21,320.63 201.54,320.29 204.08,320.22 C206.64,320.14 207.00,320.49 207.00,322.96 C207.00,324.61 206.34,326.04 205.42,326.39 ZM 144.08 276.68 L 145.50 279.35 L 145.82 276.68 C145.99,275.20 145.99,272.80 145.82,271.32 L 145.50 268.65 L 144.08 271.32 C142.86,273.63 142.86,274.37 144.08,276.68 ZM 198.14 367.97 C196.68,367.09 195.26,366.18 193.91,365.27 C183.24,358.06 173.74,348.41 166.14,337.47 C174.65,349.65 185.53,360.04 198.14,367.97 ZM 233.36 353.71 C222.57,350.59 212.59,345.12 203.56,337.37 C212.25,344.69 222.42,350.35 233.36,353.71 ZM 222.15 58.41 C214.57,63.32 208.08,69.69 203.12,77.03 C204.39,75.00 205.68,73.18 206.91,71.70 C211.15,66.61 216.38,62.08 222.15,58.41 ZM 311.29 303.98 C306.80,311.82 300.38,318.73 292.83,324.09 C295.64,322.03 298.35,319.69 301.02,317.02 C305.18,312.86 308.56,308.58 311.29,303.98 ZM 336.21 292.87 C335.36,298.58 333.98,302.13 331.62,307.15 C333.61,302.55 335.15,297.76 336.21,292.87 ZM 282.08 352.97 C277.12,354.72 272.44,355.68 266.55,356.25 C271.98,355.61 277.29,354.50 282.08,352.97 ZM 326.22 317.53 C320.74,326.57 313.54,334.48 305.11,340.76 C313.54,334.39 320.74,326.45 326.22,317.53 ZM 165.17 193.00 C165.20,193.00 165.24,193.00 165.27,193.00 C166.34,193.00 167.82,194.11 169.26,195.70 C169.03,195.48 168.80,195.27 168.55,195.04 C167.43,193.99 166.46,193.36 165.17,193.00 ZM 178.71 301.42 C177.83,298.86 177.07,296.25 176.44,293.57 C176.96,295.68 177.63,298.04 178.43,300.55 C178.52,300.84 178.61,301.13 178.71,301.42 ZM 217.61 322.56 C216.91,322.05 216.26,321.56 215.70,321.09 C214.95,320.47 214.21,319.81 213.47,319.13 C214.81,320.33 216.19,321.48 217.61,322.56 ZM 280.04 52.77 C282.43,53.75 284.78,54.90 287.07,56.22 C284.81,54.94 282.46,53.78 280.04,52.77 ZM 149.22 197.39 C149.38,197.14 149.54,196.93 149.69,196.76 C149.95,196.47 150.30,196.14 150.70,195.81 C150.18,196.28 149.69,196.81 149.22,197.39 ZM 341.23 197.38 C341.38,197.14 341.54,196.93 341.69,196.76 C341.95,196.47 342.29,196.15 342.69,195.82 C342.17,196.29 341.69,196.81 341.23,197.38 ZM 157.05 321.92 C155.40,318.50 153.93,315.01 152.67,311.49 C153.96,315.05 155.42,318.53 157.05,321.92 ZM 227.96 381.07 C226.53,380.69 225.04,380.25 223.51,379.75 C224.98,380.22 226.46,380.66 227.96,381.07 ZM 313.39 461.69 C312.92,462.02 312.48,462.28 312.10,462.45 C312.55,462.21 312.98,461.96 313.39,461.69 Z" fill="rgb(255,255,255)"/>
<path d="M 191.41 464.81 C190.56,463.63 190.48,462.74 190.90,459.50 C191.38,455.86 192.88,455.82 196.39,459.33 C199.39,462.32 200.88,464.87 199.75,465.04 C193.39,466.00 192.23,465.97 191.41,464.81 ZM 311.89 464.44 L 309.65 463.24 L 311.78 462.57 C312.95,462.20 315.04,460.55 316.41,458.92 L 318.92 455.94 L 320.41 458.22 C321.90,460.50 322.02,463.32 320.68,464.66 C319.49,465.84 314.28,465.72 311.89,464.44 ZM 191.56 445.11 C190.52,443.41 190.12,433.43 191.04,431.94 C191.93,430.50 201.68,430.51 203.47,431.95 C204.82,433.03 237.97,432.76 240.25,431.64 C241.68,430.94 242.00,431.25 242.00,433.32 L 242.00 435.85 L 221.75 436.18 C199.47,436.53 198.18,436.86 194.17,443.20 C192.98,445.08 192.00,445.80 191.56,445.11 ZM 316.62 441.27 C313.15,436.68 309.62,436.00 289.03,436.00 L 270.00 436.00 L 270.00 433.39 C270.00,431.25 270.31,430.94 271.75,431.64 C273.98,432.74 306.17,433.03 307.50,431.97 C308.36,431.29 315.27,430.62 318.59,430.91 C320.69,431.09 321.78,435.70 321.13,441.64 C320.88,443.90 318.45,443.70 316.62,441.27 ZM 226.78 385.45 C226.62,385.30 224.40,384.95 221.83,384.67 C219.27,384.39 216.24,383.66 215.10,383.06 C213.97,382.45 211.95,382.23 210.61,382.56 C208.73,383.03 208.04,382.70 207.53,381.09 C206.30,377.23 204.11,376.00 198.46,376.00 C194.34,376.00 192.86,375.59 192.17,374.25 C191.68,373.29 191.45,372.01 191.66,371.42 C191.88,370.82 191.48,370.26 190.78,370.18 C186.31,369.63 185.00,369.24 183.59,368.08 C182.73,367.36 182.26,366.38 182.56,365.91 C183.47,364.44 181.03,361.00 179.09,361.00 C176.77,361.00 174.76,358.64 174.61,355.73 C174.53,354.17 173.87,353.50 172.40,353.50 C169.51,353.50 167.25,351.40 166.51,348.03 C165.96,345.55 165.51,345.25 162.94,345.66 C160.98,345.97 159.96,345.68 159.87,344.81 C159.80,344.09 159.65,342.60 159.52,341.50 C159.40,340.40 159.23,338.78 159.15,337.91 C159.07,337.04 157.83,335.79 156.39,335.13 C154.50,334.27 153.92,333.40 154.30,331.97 C154.58,330.89 154.47,330.21 154.05,330.47 C152.66,331.33 151.22,326.46 151.27,321.04 C151.30,316.95 150.87,315.38 149.45,314.34 C148.42,313.59 147.12,313.13 146.55,313.32 C144.18,314.11 141.74,308.59 143.63,306.71 C144.45,305.88 144.45,293.65 143.62,288.20 C143.13,285.00 143.36,283.50 144.48,282.37 C146.35,280.51 146.38,280.60 147.87,292.01 C151.54,320.00 169.72,348.92 193.91,365.27 C204.29,372.29 218.51,378.79 229.03,381.34 C238.12,383.53 240.22,384.69 235.25,384.74 C233.74,384.76 231.27,384.99 229.78,385.25 C228.28,385.51 226.93,385.60 226.78,385.45 ZM 274.58 384.09 C274.81,383.86 279.02,382.65 283.94,381.41 C328.07,370.25 362.45,329.18 365.68,283.75 C366.20,276.38 366.50,275.27 367.54,276.76 C368.42,278.02 368.74,283.29 368.64,294.95 L 368.50 311.37 L 364.54 313.43 C360.91,315.33 360.57,315.85 360.49,319.75 C360.45,322.09 360.69,324.00 361.04,324.00 C361.38,324.00 361.60,324.86 361.52,325.92 C361.36,328.15 359.10,331.18 358.06,330.54 C357.67,330.30 357.39,331.09 357.43,332.30 C357.48,333.83 356.83,334.59 355.30,334.81 C353.45,335.08 353.17,335.63 353.53,338.40 C354.03,342.30 351.11,346.10 348.07,345.51 C346.58,345.23 345.84,345.96 344.99,348.53 C344.16,351.03 342.97,352.24 340.41,353.17 C338.43,353.89 337.15,354.94 337.41,355.63 C337.67,356.30 336.73,358.00 335.33,359.40 C333.34,361.38 332.37,361.73 330.95,360.98 C329.95,360.44 328.94,360.00 328.70,360.00 C328.12,360.00 328.67,364.65 329.38,365.81 C330.11,366.99 327.03,369.69 324.75,369.87 C320.65,370.18 320.00,370.39 319.97,371.42 C319.88,374.35 316.95,376.33 312.93,376.17 C310.66,376.08 307.88,376.67 306.69,377.50 C305.52,378.33 304.91,379.00 305.35,379.00 C305.79,379.00 305.48,379.67 304.66,380.48 C303.85,381.30 302.99,382.53 302.76,383.23 C302.44,384.18 298.73,384.50 288.25,384.50 C280.50,384.50 274.35,384.31 274.58,384.09 ZM 239.98 355.43 C211.49,349.31 186.95,327.42 178.43,300.55 C175.27,290.58 174.12,282.92 176.07,284.75 C176.80,285.44 178.40,286.00 179.62,286.00 C182.70,286.00 185.69,293.59 184.24,297.75 C183.51,299.85 183.60,301.30 184.59,303.18 C185.33,304.59 185.75,306.71 185.52,307.88 C185.19,309.63 185.60,310.00 187.90,310.00 C189.89,310.00 191.00,310.71 191.82,312.50 C192.47,313.94 192.56,315.00 192.01,315.00 C191.49,315.00 191.32,315.66 191.62,316.46 C192.45,318.63 195.92,319.38 198.55,317.98 C200.55,316.90 200.71,316.39 199.81,314.12 C199.24,312.68 198.71,310.38 198.64,309.02 C198.55,307.40 197.39,305.84 195.28,304.52 C193.51,303.41 191.85,301.83 191.59,301.00 C191.14,299.59 190.58,284.97 190.87,282.25 C191.20,279.11 192.97,281.52 194.01,286.54 C196.42,298.13 205.50,312.61 215.70,321.09 C221.25,325.71 234.47,332.62 239.58,333.58 C241.52,333.95 242.92,334.74 242.71,335.37 C242.27,336.72 232.43,337.89 230.71,336.80 C230.04,336.38 228.28,336.02 226.79,336.02 C225.10,336.01 223.66,335.24 223.00,334.00 C222.41,332.90 222.23,332.00 222.59,332.00 C222.95,332.00 222.73,331.38 222.10,330.62 C221.47,329.86 219.09,329.21 216.82,329.18 C214.55,329.15 212.39,328.63 212.02,328.03 C210.95,326.30 209.27,331.19 209.97,334.00 C210.40,335.71 211.29,336.50 212.78,336.50 C214.75,336.50 219.20,340.95 217.31,341.04 C216.86,341.05 217.58,341.67 218.91,342.41 C220.38,343.22 222.33,343.46 223.91,343.03 C226.76,342.25 232.30,343.71 231.48,345.03 C231.20,345.49 231.42,346.14 231.98,346.49 C232.54,346.84 233.00,347.99 233.00,349.06 C233.00,350.65 233.76,351.03 237.25,351.14 C244.93,351.40 247.76,351.80 249.90,352.94 C251.05,353.56 252.00,353.72 252.01,353.29 C252.01,352.85 253.11,351.99 254.45,351.37 C256.48,350.43 257.24,350.57 259.05,352.26 C260.77,353.86 261.38,354.00 262.04,352.94 C262.60,352.03 265.32,351.58 270.68,351.52 C276.82,351.45 278.51,351.12 278.56,349.97 C278.79,344.37 281.17,342.73 289.50,342.50 C293.59,342.39 294.45,342.05 294.21,340.68 C294.04,339.76 294.38,339.00 294.96,339.00 C295.53,339.00 296.00,338.36 296.00,337.58 C296.00,336.80 297.34,335.86 298.99,335.50 C302.87,334.65 303.46,333.53 301.97,329.92 C301.04,327.68 300.43,327.22 299.46,328.04 C298.75,328.62 296.45,329.26 294.34,329.45 C292.23,329.64 290.11,329.84 289.64,329.90 C289.17,329.95 289.03,330.63 289.32,331.40 C290.46,334.36 285.34,337.13 279.00,337.00 C278.17,336.99 276.60,336.99 275.50,337.00 C274.40,337.02 271.48,336.75 269.00,336.41 L 264.50 335.79 L 271.78 333.93 C289.21,329.49 304.89,316.96 312.79,301.18 C315.08,296.61 317.50,290.20 318.17,286.94 C318.85,283.67 319.66,281.00 319.98,281.00 C320.56,281.00 321.23,285.09 321.12,288.00 C321.10,288.83 321.04,291.75 321.00,294.50 C320.90,301.36 320.38,302.60 317.00,304.00 C314.25,305.14 312.13,308.47 313.37,309.70 C313.67,310.01 313.23,311.59 312.39,313.22 C311.00,315.90 311.01,316.35 312.48,317.98 C313.85,319.49 314.59,319.60 317.03,318.68 C319.83,317.62 321.94,315.00 319.99,315.00 C319.44,315.00 319.53,313.94 320.18,312.50 C321.01,310.69 322.10,310.00 324.16,310.00 C327.15,310.00 327.51,308.97 327.03,301.70 C326.92,300.16 327.35,298.29 327.97,297.54 C328.74,296.60 328.77,295.98 328.05,295.53 C326.86,294.79 326.66,289.05 327.77,287.43 C328.17,286.84 329.77,286.43 331.33,286.53 C332.88,286.62 334.82,286.04 335.63,285.23 C336.43,284.42 337.28,283.94 337.50,284.17 C337.72,284.39 337.22,287.93 336.38,292.04 C331.07,318.14 311.75,341.11 286.48,351.38 C273.19,356.78 254.02,358.45 239.98,355.43 ZM 205.42 326.39 C206.34,326.04 207.00,324.61 207.00,322.96 C207.00,320.49 206.64,320.14 204.08,320.22 C201.54,320.29 201.21,320.63 201.52,322.90 C201.71,324.33 201.89,325.84 201.93,326.25 C202.01,327.16 203.29,327.21 205.42,326.39 ZM 310.58 325.56 C311.42,324.72 311.62,323.88 311.05,323.53 C310.52,323.20 310.30,322.39 310.55,321.72 C310.85,320.95 309.90,320.42 308.01,320.29 C305.31,320.10 305.00,320.38 305.00,322.96 C305.00,326.80 307.96,328.18 310.58,325.56 ZM 174.00 277.01 C174.00,272.34 174.15,272.00 175.56,273.42 C177.38,275.24 177.16,281.13 175.25,281.76 C174.36,282.05 174.00,280.69 174.00,277.01 ZM 335.12 279.79 C334.14,277.13 334.71,274.49 336.61,272.91 C337.77,271.95 338.00,272.61 338.00,276.88 C338.00,282.19 336.55,283.66 335.12,279.79 ZM 144.08 276.68 C142.86,274.37 142.86,273.63 144.08,271.32 L 145.50 268.65 L 145.82 271.32 C145.99,272.80 145.99,275.20 145.82,276.68 L 145.50 279.35 L 144.08 276.68 ZM 144.89 209.25 C144.84,208.84 144.87,207.26 144.97,205.75 C145.07,204.24 144.49,202.35 143.68,201.54 C142.12,199.97 142.06,193.52 143.60,192.03 C145.10,190.59 154.00,189.61 154.00,190.89 C154.00,191.50 154.79,192.02 155.75,192.04 C156.83,192.06 156.35,192.58 154.50,193.40 C152.85,194.13 150.68,195.64 149.69,196.76 C147.77,198.91 144.82,208.48 145.77,209.44 C146.08,209.75 146.03,210.00 145.67,210.00 C145.30,210.00 144.95,209.66 144.89,209.25 ZM 336.89 209.25 C336.84,208.84 336.87,207.26 336.97,205.75 C337.07,204.24 336.49,202.35 335.68,201.54 C334.12,199.97 334.06,193.52 335.60,192.03 C337.10,190.59 346.00,189.61 346.00,190.89 C346.00,191.50 346.79,192.02 347.75,192.04 C348.83,192.06 348.35,192.58 346.50,193.40 C344.85,194.13 342.68,195.64 341.69,196.76 C339.77,198.91 336.82,208.48 337.77,209.44 C338.08,209.75 338.03,210.00 337.67,210.00 C337.30,210.00 336.95,209.66 336.89,209.25 ZM 174.00 204.93 C174.00,201.01 168.15,193.00 165.27,193.00 C164.20,193.00 164.17,192.73 165.15,191.68 C166.50,190.24 174.69,190.02 176.82,191.37 C178.38,192.36 178.17,198.36 176.45,202.00 C175.81,203.38 175.48,205.06 175.72,205.75 C175.97,206.44 175.68,207.00 175.08,207.00 C174.49,207.00 174.00,206.07 174.00,204.93 ZM 366.00 204.93 C366.00,201.01 360.15,193.00 357.27,193.00 C356.20,193.00 356.17,192.73 357.15,191.68 C358.50,190.24 366.69,190.02 368.82,191.37 C370.38,192.36 370.17,198.36 368.45,202.00 C367.81,203.38 367.48,205.06 367.72,205.75 C367.97,206.44 367.68,207.00 367.08,207.00 C366.49,207.00 366.00,206.07 366.00,204.93 ZM 190.72 101.72 C190.45,101.01 190.40,99.10 190.61,97.47 C190.82,95.83 191.19,91.94 191.42,88.81 C191.79,83.84 192.30,82.67 195.49,79.58 C197.50,77.63 198.86,75.59 198.53,75.05 C198.19,74.50 198.63,72.68 199.50,71.00 C200.37,69.32 200.84,67.56 200.55,67.08 C199.86,65.97 202.81,63.53 204.89,63.52 C205.84,63.51 206.64,62.48 206.85,61.00 C207.29,57.77 208.96,55.77 210.66,56.42 C211.40,56.71 212.00,56.55 212.00,56.08 C212.00,54.94 217.64,54.16 219.14,55.09 C220.49,55.92 223.40,53.46 222.60,52.15 C222.30,51.68 222.63,50.52 223.32,49.58 C224.71,47.68 235.87,46.66 243.91,47.70 L 248.32 48.27 L 241.12 50.10 C228.15,53.40 215.49,61.38 206.91,71.70 C201.73,77.92 195.47,90.43 194.01,97.46 C192.89,102.84 191.73,104.34 190.72,101.72 ZM 318.17 97.06 C314.00,76.87 295.57,57.12 275.26,51.09 C272.31,50.22 269.93,49.05 269.96,48.50 C270.04,47.04 286.44,47.12 288.45,48.58 C289.46,49.33 289.91,50.70 289.64,52.22 C289.17,54.77 289.34,54.83 298.25,55.08 C299.21,55.10 300.00,55.53 300.00,56.03 C300.00,56.53 300.64,56.69 301.42,56.39 C302.24,56.08 303.32,56.73 303.96,57.92 C304.57,59.07 304.81,60.00 304.50,60.00 C304.19,60.00 304.43,60.93 305.04,62.08 C305.65,63.22 306.75,63.93 307.48,63.64 C308.96,63.08 312.37,66.29 311.37,67.30 C311.02,67.65 311.48,69.09 312.40,70.49 C313.32,71.90 314.01,73.60 313.92,74.27 C313.55,77.14 314.19,78.18 317.46,80.11 C320.84,82.10 320.93,82.31 320.84,88.33 C320.79,91.72 320.98,95.83 321.26,97.47 C321.79,100.56 321.28,103.00 320.09,103.00 C319.71,103.00 318.85,100.33 318.17,97.06 Z" fill="rgb(253,253,253)"/>
</g>
</svg>